<svg xmlns="http://www.w3.org/2000/svg" viewBox="0 0 512 512">
  <defs>
    <linearGradient id="bgDarkR" x1="0%" y1="0%" x2="100%" y2="100%">
      <stop offset="0%" style="stop-color:#0F172A"/>
      <stop offset="100%" style="stop-color:#1E293B"/>
    </linearGradient>
    <linearGradient id="outerStrokeD" x1="0%" y1="100%" x2="100%" y2="0%">
      <stop offset="0%" style="stop-color:#475569"/>
      <stop offset="100%" style="stop-color:#64748B"/>
    </linearGradient>
    <linearGradient id="leftFacetD" x1="0%" y1="0%" x2="100%" y2="100%">
      <stop offset="0%" style="stop-color:#0EA5E9"/>
      <stop offset="100%" style="stop-color:#0369A1"/>
    </linearGradient>
    <linearGradient id="rightFacetD" x1="100%" y1="0%" x2="0%" y2="100%">
      <stop offset="0%" style="stop-color:#38BDF8"/>
      <stop offset="100%" style="stop-color:#0284C7"/>
    </linearGradient>
    <linearGradient id="centerFacetD" x1="0%" y1="0%" x2="0%" y2="100%">
      <stop offset="0%" style="stop-color:#7DD3FC"/>
      <stop offset="100%" style="stop-color:#0EA5E9"/>
    </linearGradient>
  </defs>
  <rect width="512" height="512" rx="80" fill="url(#bgDarkR)"/>
  <path d="M256 80 Q110 80 110 270 Q110 390 175 405 L337 405 Q402 390 402 270 Q402 80 256 80 Z"
        fill="none" stroke="url(#outerStrokeD)" stroke-width="24" stroke-linejoin="round"/>
  <path d="M256 115 L155 340 L256 290 Z" fill="url(#leftFacetD)"/>
  <path d="M256 115 L357 340 L256 290 Z" fill="url(#rightFacetD)"/>
  <path d="M256 165 L210 290 L256 265 L302 290 Z" fill="url(#centerFacetD)" opacity="0.5"/>
</svg>
