<svg xmlns="http://www.w3.org/2000/svg" viewBox="0 0 512 512">
  <defs>
    <linearGradient id="bgDarkL" x1="0%" y1="0%" x2="100%" y2="100%">
      <stop offset="0%" style="stop-color:#18181B"/>
      <stop offset="100%" style="stop-color:#27272A"/>
    </linearGradient>
    <linearGradient id="layer1D" x1="0%" y1="0%" x2="0%" y2="100%">
      <stop offset="0%" style="stop-color:#1E40AF"/>
      <stop offset="100%" style="stop-color:#1E3A8A"/>
    </linearGradient>
    <linearGradient id="layer2D" x1="0%" y1="0%" x2="0%" y2="100%">
      <stop offset="0%" style="stop-color:#3B82F6"/>
      <stop offset="100%" style="stop-color:#2563EB"/>
    </linearGradient>
    <linearGradient id="layer3D" x1="0%" y1="0%" x2="0%" y2="100%">
      <stop offset="0%" style="stop-color:#60A5FA"/>
      <stop offset="100%" style="stop-color:#3B82F6"/>
    </linearGradient>
    <linearGradient id="topLayerD" x1="0%" y1="0%" x2="0%" y2="100%">
      <stop offset="0%" style="stop-color:#93C5FD"/>
      <stop offset="100%" style="stop-color:#60A5FA"/>
    </linearGradient>
  </defs>
  <rect width="512" height="512" rx="80" fill="url(#bgDarkL)"/>
  <path d="M256 70 L115 400 L175 400 L256 190 L337 400 L397 400 Z" fill="url(#layer1D)"/>
  <path d="M256 105 L140 385 L190 385 L256 210 L322 385 L372 385 Z" fill="url(#layer2D)"/>
  <path d="M256 140 L165 370 L200 370 L256 230 L312 370 L347 370 Z" fill="url(#layer3D)"/>
  <path d="M256 245 L215 355 L297 355 Z" fill="url(#topLayerD)"/>
</svg>
